<?xml version="1.0" encoding="utf-8"?>
<!-- Generator: Adobe Illustrator 26.0.3, SVG Export Plug-In . SVG Version: 6.00 Build 0)  -->
<svg version="1.1" id="Camada_1" xmlns="http://www.w3.org/2000/svg" xmlns:xlink="http://www.w3.org/1999/xlink" x="0px" y="0px"
	 viewBox="0 0 40 40" style="enable-background:new 0 0 40 40;" xml:space="preserve">
<style type="text/css">
	.st0{fill:#009B3A;}
	.st1{fill:#FEDF00;}
	.st2{fill:#002776;}
	.st3{fill:#FFFFFF;}
</style>
<g id="Brazil">
	<circle class="st0" cx="20" cy="20" r="19"/>
	<g id="Brazil_Round_Flag">
		<g id="Layer_4">
			<path class="st1" d="M20,8.7L2,19.8L20,31l18-11.2L20,8.7z M27.2,22.1c-1,3-3.8,5.2-7.2,5.2c-4.2,0-7.6-3.3-7.6-7.4
				c0-0.6,0.1-1.3,0.2-1.9c0.1-0.4,0.2-0.8,0.4-1.1c1.2-2.6,3.8-4.4,6.9-4.4c4.2,0,7.6,3.3,7.6,7.4c0,0.4,0,0.7-0.1,1
				C27.4,21.3,27.4,21.7,27.2,22.1z"/>
		</g>
		<g id="Layer_3">
			<path class="st2" d="M12.7,18c-0.2,0.6-0.2,1.2-0.2,1.9c0,4.1,3.4,7.4,7.6,7.4c3.4,0,6.3-2.2,7.2-5.2c-3.1-2.7-7.1-4.3-11.6-4.3
				C14.7,17.7,13.7,17.8,12.7,18z M13.7,22.5l-0.2-0.1l-0.2,0.1l0.1-0.2l-0.2-0.1h0.2l0.1-0.2l0.1,0.2h0.2l-0.2,0.1L13.7,22.5z
				 M14,18.8l-0.2-0.1l-0.2,0.1l0.1-0.2l-0.2-0.1h0.2l0.1-0.2l0.1,0.2h0.2l-0.2,0.1L14,18.8z M14.7,21.9l-0.2-0.1l-0.2,0.1l0.1-0.2
				l-0.2-0.1h0.2l0.1-0.2l0.1,0.2h0.2l-0.2,0.1L14.7,21.9z M15.3,21.3L15.3,21.3h-0.2v-0.1L15,21.1h0.1V21v0.1h0.1l-0.1,0.1
				L15.3,21.3z M20.1,25.7L20.1,25.7H20v-0.1h-0.1H20v-0.1v0.1h0.1V25.7L20.1,25.7z M23.9,25.6l-0.1-0.1l-0.1,0.1v-0.1l-0.1-0.1h0.2
				v-0.1v0.1H24l-0.1,0.1V25.6z M26.3,22.4v-0.1V22.4h0.3l-0.1,0.1v0.1l-0.1-0.1l-0.1,0.1L26.3,22.4h-0.2H26.3z M25.7,23h0.2
				l-0.2,0.1l0.1,0.2l-0.2-0.1l-0.2,0.1l0.1-0.2L25.4,23h0.2l0.1-0.2V23z M25.2,22.3l0.1-0.2l0.1,0.2h0.2l-0.2,0.1l0.1,0.2l-0.2-0.1
				l-0.2,0.1l0.1-0.2L25,22.3H25.2z M25.1,23.6l0.1-0.2l0.1,0.2h0.2l-0.2,0.1l0.1,0.2l-0.2-0.1L25,23.9L25.1,23.6l-0.2,0
				C24.9,23.6,25.1,23.6,25.1,23.6z M24.5,24v-0.1V24h0.3l-0.1,0.1v0.1l-0.1-0.1l-0.1,0.1L24.5,24h-0.2H24.5z M23.7,23.8v-0.1V23.8
				H24l-0.1,0.1V24h-0.1l-0.1,0.1L23.7,23.8h-0.2H23.7z M23.7,24.6l0.1-0.2l0.1,0.2h0.2l-0.2,0.1l0.1,0.2l-0.2-0.1l-0.2,0.1l0.1-0.2
				l-0.2-0.1H23.7z M22.9,24.1V24V24.1h0.3L23,24.2v0.1l-0.1-0.1l-0.1,0.1L22.9,24.1h-0.2H22.9z M22.3,24.7h0.2l-0.2,0.1l0.1,0.2
				l-0.2-0.1L22.1,25L22.3,24.7H22H22.3l0-0.2L22.3,24.7z M22,19.4v-0.1V19.4h0.3l-0.1,0.1v0.1l-0.1-0.1L22,19.6L22,19.4h-0.2H22z
				 M21.6,23.9v-0.1V23.9h0.3L21.8,24v0.1L21.7,24l-0.1,0.1L21.6,23.9h-0.2H21.6z M20.8,21.6l0.1-0.2l0.1,0.2h0.2L21,21.7l0.1,0.2
				l-0.2-0.1l-0.2,0.1l0.1-0.2l-0.2-0.1H20.8z M20.2,23.4L20,23.3l-0.2,0.1l0.1-0.2l-0.2-0.1h0.2l0.1-0.2l0.1,0.2h0.2l-0.2,0.1
				L20.2,23.4z M19.9,21l0.1-0.2l0.1,0.2h0.2l-0.2,0.1l0.1,0.2L20,21.1l-0.2,0.1L19.9,21h-0.1H19.9z M19.6,22.2v-0.1V22.2h0.2H19.6
				l0.1,0.2l-0.1-0.1l-0.1,0.1L19.6,22.2h-0.1H19.6z M19.2,21.6v-0.1V21.6h0.3l-0.1,0.1v0.1l-0.1-0.1l-0.1,0.1L19.2,21.6H19H19.2z
				 M17.1,20.1l0.1-0.2l0.1,0.2h0.2l-0.2,0.1l0.1,0.2l-0.2-0.1L17,20.4L17.1,20.1l-0.2,0C16.9,20.1,17.1,20.1,17.1,20.1z M16.9,23.7
				l0.1-0.2l0.1,0.2h0.2l-0.2,0.1l0.1,0.2L17,23.9L16.8,24L16.9,23.7l-0.2,0C16.7,23.7,16.9,23.7,16.9,23.7z M16,22.3l0.1-0.2
				l0.1,0.2h0.2l-0.2,0.1l0.1,0.2l-0.2-0.1l-0.2,0.1l0.1-0.2l-0.2-0.1H16z M15.8,22.9V23H16l-0.1,0.1v0.1l-0.1-0.1l-0.1,0.1v-0.1
				L15.6,23h0.2V22.9z M20,12.5c-3.1,0-5.8,1.8-6.9,4.4c0.8-0.1,1.7-0.2,2.6-0.2c4.5,0,8.6,1.6,11.8,4.2c0-0.3,0.1-0.7,0.1-1
				C27.6,15.8,24.2,12.5,20,12.5z M22.5,17.8l-0.2-0.1l-0.2,0.1l0.1-0.2L22,17.5h0.2l0.1-0.2l0.1,0.2h0.2l-0.2,0.1L22.5,17.8z"/>
		</g>
		<g id="Layer_2">
			<path class="st3" d="M25.1,23.7l-0.2-0.1h0.2l0.1-0.2l0.1,0.2h0.2l-0.2,0.1l0.1,0.2l-0.2-0.1L25,23.9L25.1,23.7z M22.8,24.3
				l0.1-0.1l0.1,0.1v-0.1l0.1-0.1H23V24v0.1h-0.2l0.1,0.1L22.8,24.3z M25.1,22.7l0.2-0.1l0.2,0.1l-0.1-0.2l0.2-0.1h-0.2l-0.1-0.2
				l-0.1,0.2H25l0.2,0.1L25.1,22.7z M23.6,24.9l0.2-0.1l0.2,0.1l-0.1-0.2l0.2-0.1h-0.2l-0.1-0.2l-0.1,0.2h-0.2l0.2,0.1L23.6,24.9z
				 M23.6,24.1l0.1-0.1l0.1,0.1V24l0.1-0.1h-0.2v-0.1v0.1h-0.2l0.1,0.1V24.1z M22,24.7l0.2,0.1L22.1,25l0.2-0.1l0.2,0.1l-0.1-0.2
				l0.2-0.1h-0.2l-0.1-0.2l-0.1,0.2C22.2,24.7,22,24.7,22,24.7z M24.4,24.2l0.1-0.1l0.1,0.1v-0.1l0.1-0.1h-0.2v-0.1V24h-0.2l0.1,0.1
				V24.2z M25.4,23l0.2,0.1l-0.1,0.2l0.2-0.1l0.2,0.1l-0.1-0.2L26,23h-0.2l-0.1-0.2L25.6,23H25.4z M14.6,21.5l-0.1-0.2l-0.1,0.2
				h-0.2l0.2,0.1l-0.1,0.2l0.2-0.1l0.2,0.1l-0.1-0.2l0.2-0.1H14.6z M26.2,22.7l0.1-0.1l0.1,0.1v-0.1l0.1-0.1h-0.2v-0.1v0.1h-0.2
				l0.1,0.1V22.7z M13.6,22.2V22l-0.1,0.2h-0.2l0.2,0.1l-0.1,0.2l0.2-0.1l0.2,0.1l-0.1-0.2l0.2-0.1H13.6z M13.9,18.4l-0.1-0.2
				l-0.1,0.2h-0.2l0.2,0.1l-0.1,0.2l0.2-0.1l0.2,0.1l-0.1-0.2l0.2-0.1H13.9z M23.8,25.3v-0.1V25.3h-0.3l0.1,0.1v0.1l0.1-0.1l0.1,0.1
				L23.8,25.3H24H23.8z M21.9,19.6l0.1-0.1l0.1,0.1v-0.1l0.1-0.1H22v-0.1v0.1h-0.2l0.1,0.1V19.6z M20,25.6L20,25.6L20,25.6h-0.1H20
				l-0.1,0.1L20,25.6v0.1V25.6L20,25.6L20,25.6z M15.3,21.1V21V21.1h-0.2H15.3l-0.1,0.2l0.1-0.1l0.1,0.1L15.3,21.1h0.1H15.3z
				 M21.3,17.9c0,0,0-0.1-0.1-0.1l-0.3-0.1l-0.1,0.2l0.3,0.1C21.2,18,21.2,18,21.3,17.9z M21.8,18.5c0.1,0,0.2,0,0.3-0.1
				c0-0.1,0-0.2-0.1-0.3s-0.2,0-0.3,0.1C21.7,18.4,21.8,18.5,21.8,18.5z M23.9,19v-0.1l-0.2-0.1L23.6,19l0.2,0.1
				C23.8,19.1,23.8,19,23.9,19z M14.5,17h-0.3v0.2h0.3C14.6,17.2,14.6,17.2,14.5,17C14.6,17.1,14.6,17,14.5,17z M26.6,21.2
				c0.1,0.1,0.2,0,0.3-0.1c0.1-0.1,0.1-0.2,0-0.3c-0.1-0.1-0.2,0-0.3,0.1C26.6,21,26.6,21.1,26.6,21.2z M22.4,17.5l-0.1-0.2
				l-0.1,0.2H22l0.2,0.1l-0.1,0.2l0.2-0.1l0.2,0.1l-0.1-0.2l0.2-0.1H22.4z M20.4,17.7c0,0,0-0.1-0.1-0.1L20,17.5v0.2l0.3,0.1
				C20.3,17.8,20.3,17.7,20.4,17.7z M13.5,17.1c-0.1,0-0.2,0.1-0.2,0.2s0.1,0.2,0.2,0.2c0.1,0,0.2-0.1,0.2-0.2S13.6,17.1,13.5,17.1z
				 M21.5,24.2l0.1-0.1l0.1,0.1v-0.1l0.1-0.1h-0.2v-0.1V24h-0.2l0.1,0.1V24.2z M15.4,17h-0.2v0.4h0.2c0.1,0,0.2-0.1,0.2-0.2v-0.1
				C15.6,17.1,15.5,17,15.4,17z M15.7,16.7c4.5,0,8.6,1.6,11.8,4.2c-0.1,0.4-0.1,0.8-0.3,1.2c-3.1-2.7-7.1-4.3-11.6-4.3
				c-1,0-2,0.1-3,0.3c0.1-0.4,0.2-0.8,0.4-1.1C13.9,16.7,14.8,16.7,15.7,16.7z M13.8,17.3c0-0.2-0.2-0.3-0.4-0.3s-0.3,0.2-0.3,0.4
				s0.2,0.3,0.4,0.3C13.7,17.7,13.8,17.5,13.8,17.3z M14.7,17.3c0.1,0,0.1-0.1,0.1-0.2s-0.1-0.2-0.2-0.2h-0.4v0.7h0.1v-0.3H14.7
				c0,0.1,0,0.2,0,0.3h0.1C14.7,17.5,14.7,17.4,14.7,17.3z M26.6,21.3c0.1,0.1,0.4,0.1,0.5-0.1s0.1-0.4,0-0.5s-0.4-0.1-0.5,0.1
				S26.4,21.2,26.6,21.3z M25.8,20.7c0.1,0.1,0.3,0.2,0.4,0s-0.3-0.4-0.2-0.5c0-0.1,0.1,0,0.2,0s0.1,0.1,0.1,0.2l0.1,0.1
				c0.1-0.1,0-0.3-0.1-0.3c-0.1-0.1-0.3-0.2-0.4,0c-0.2,0.2,0.3,0.4,0.2,0.5C26.1,20.7,26,20.7,25.8,20.7c0-0.1,0-0.2,0-0.3
				l-0.1-0.1C25.6,20.5,25.7,20.7,25.8,20.7z M25.1,20L25,19.9c-0.1,0.1,0.1,0.3,0.2,0.4s0.3,0.1,0.4,0c0.1-0.2-0.3-0.4-0.2-0.5
				c0-0.1,0.1,0,0.2,0s0.1,0.1,0.1,0.2l0.1,0.1c0.1-0.1,0-0.3-0.1-0.3s-0.3-0.2-0.4,0s0.3,0.4,0.2,0.5c0,0-0.1,0-0.2,0
				C25.1,20.1,25,20,25.1,20z M24.4,19L24,19.6l0.6,0.3l0.1-0.1l-0.5-0.3l0.1-0.2l0.4,0.2l0.1-0.1l-0.4-0.2l0.1-0.1l0.4,0.2l0.1-0.1
				L24.4,19z M23.2,19.2l0.1,0.1l0.1-0.2l0.3,0.1c0,0.1,0,0.2-0.1,0.3l0.1,0.1c0-0.1,0.1-0.2,0.1-0.3c0.1,0,0.1,0,0.2-0.1
				s0-0.2-0.1-0.3l-0.4-0.2L23.2,19.2z M22.7,19L22.7,19c0.1,0,0.2,0,0.2,0v0.1H23l0.1-0.2v-0.1L23,18.7l-0.1-0.1v0.1H23
				c-0.1,0.1-0.1,0.1-0.2,0c-0.1,0-0.1-0.2-0.1-0.3c0-0.1,0.2-0.2,0.3-0.1c0.1,0,0.1,0.1,0.1,0.2l0.1,0.1c0-0.1-0.1-0.3-0.2-0.3
				c-0.2-0.1-0.4,0-0.4,0.2C22.4,18.7,22.5,18.9,22.7,19z M21.8,18.6c0.2,0.1,0.4,0,0.4-0.2c0.1-0.2,0-0.4-0.2-0.4
				c-0.2-0.1-0.4,0-0.4,0.2C21.6,18.4,21.6,18.6,21.8,18.6z M20.6,18.3h0.1l0.1-0.2l0.3,0.1c0,0.1,0,0.2,0,0.3h0.1
				c0-0.1,0.1-0.2,0-0.3c0.1,0,0.1-0.1,0.2-0.1c0-0.1,0-0.2-0.1-0.3l-0.4-0.1L20.6,18.3z M19.7,18h0.1l0.1-0.3l0.3,0.1
				c0.1,0,0.2,0,0.3-0.2c0-0.1,0-0.2-0.2-0.3l-0.4-0.1L19.7,18z M18.4,17.8l0.5,0.1v-0.1l-0.4-0.1v-0.2l0.3,0.1v-0.1l-0.3-0.1v-0.1
				l0.4,0.1v-0.1l-0.5-0.1V17.8z M16.9,17.6H17v-0.5l0.1,0.5h0.1l0.2-0.5v0.5h0.1l0.1-0.7h-0.2l-0.2,0.5l-0.1-0.5h-0.2V17.6z
				 M16,17.6h0.6v-0.1h-0.5v-0.2h0.4v-0.1h-0.4v-0.1h0.5V17H16V17.6z M15.7,17.2c0-0.2-0.1-0.3-0.3-0.3h-0.3v0.7h0.3
				C15.6,17.6,15.7,17.4,15.7,17.2L15.7,17.2z M15.8,23.1v0.1V23.1l0.2,0.1v-0.1V23h-0.2v-0.1V23.1L15.6,23L15.8,23.1z M19.8,21.2
				l0.2-0.1l0.2,0.1L20.1,21l0.2-0.1h-0.2L20,20.8L19.9,21h-0.2l0.2,0.1L19.8,21.2z M19.5,22.3L19.5,22.3h0.2v-0.1l0.1-0.1h-0.1V22
				v0.1h-0.1l0.1,0.1L19.5,22.3z M20.1,23.1L20,22.8L19.9,23h-0.2l0.2,0.1l-0.1,0.2l0.2-0.1l0.2,0.1L20.1,23.1l0.2-0.1h-0.2V23.1z
				 M20.7,21.9l0.2-0.1l0.2,0.1L21,21.7l0.2-0.1H21l-0.1-0.2l-0.1,0.2h-0.2l0.2,0.1L20.7,21.9z M19.1,21.9l0.1-0.1l0.1,0.1v-0.1
				l0.1-0.1h-0.2v-0.1v0.1H19l0.1,0.1V21.9z M15.9,22.6l0.2-0.1l0.2,0.1l-0.1-0.2l0.2-0.1h-0.2l-0.1-0.2L16,22.3h-0.2l0.2,0.1
				L15.9,22.6z M17,20.4l0.2-0.1l0.2,0.1l-0.1-0.2l0.2-0.1h-0.2l-0.1-0.2l-0.1,0.2h-0.2l0.2,0.1L17,20.4z M16.8,24l0.2-0.1l0.2,0.1
				l-0.1-0.2l0.2-0.1H17v-0.3l-0.1,0.2h-0.2l0.2,0.1L16.8,24z"/>
		</g>
	</g>
</g>
</svg>
